<svg xmlns="http://www.w3.org/2000/svg" version="1.0" width="300mm" height="200mm" viewBox="0 0 300 200"><path fill="none" stroke="black" stroke-width="0.1" d="M0,66.67 C15,64.82 36.24,76.13 25.41,59.13 C14.59,42.13 52.84,42.13 44.54,59.13 C36.24,76.13 60,68.5 75,66.67 C90,64.83 107.92,58.78 99.97,75.78 C92.03,92.78 130.28,92.78 119.1,75.78 C107.92,58.78 135,64.67 150,66.67 C165,68.67 185.53,73.8 178.29,56.8 C171.06,39.8 209.31,39.8 197.42,56.8 C185.53,73.8 210,68.22 225,66.67 C240,65.12 267.79,58.47 255.26,75.47 C242.73,92.47 280.98,92.47 274.38,75.47 C267.79,58.47 285,67.42 300,66.67 M0,133.33 C15,134.83 37.3,142.41 28.11,125.41 C18.92,108.41 57.17,108.41 47.24,125.41 C37.3,142.41 60,135.8 75,133.33 C90,130.87 116.31,140.86 105.64,123.86 C94.97,106.86 133.22,106.86 124.77,123.86 C116.31,140.86 135,133.89 150,133.33 C165,132.78 187.23,122.35 177.46,139.35 C167.69,156.35 205.94,156.35 196.58,139.35 C187.23,122.35 210,131.57 225,133.33 C240,135.09 260.47,144.27 253.85,127.27 C247.23,110.27 285.48,110.27 272.98,127.27 C260.47,144.27 285,131.29 300,133.33 M75,0 C73.32,13.33 68.36,36.21 87.48,26.57 C106.61,16.92 106.61,50.92 87.48,43.57 C68.36,36.21 72.57,53.33 75,66.67 C77.43,80 84.95,98.6 65.82,89.51 C46.7,80.43 46.7,114.43 65.82,106.51 C84.95,98.6 76.67,120 75,133.33 C73.33,146.67 81.67,164.98 62.54,156.31 C43.42,147.65 43.42,181.65 62.54,173.31 C81.67,164.98 75.42,186.67 75,200 M150,0 C150.04,13.33 141.35,32.78 160.47,23.25 C179.6,13.73 179.6,47.73 160.47,40.25 C141.35,32.78 148.54,53.33 150,66.67 C151.46,80 162.45,104.26 143.33,93.38 C124.2,82.51 124.2,116.51 143.33,110.38 C162.45,104.26 151.87,120 150,133.33 C148.13,146.67 140.69,166.79 159.81,159.18 C178.94,151.57 178.94,185.57 159.81,176.18 C140.69,166.79 148.25,186.67 150,200 M225,0 C226.76,13.33 232.1,35.15 212.98,25.83 C193.85,16.51 193.85,50.51 212.98,42.83 C232.1,35.15 227.96,53.33 225,66.67 C222.04,80 213.69,96.9 232.81,90.49 C251.94,84.09 251.94,118.09 232.81,107.49 C213.69,96.9 224.64,120 225,133.33 C225.36,146.67 231.86,163.41 212.73,156.84 C193.61,150.28 193.61,184.28 212.73,173.84 C231.86,163.41 225.56,186.67 225,200 M0,0 L300,0 L300,200 L0,200 L0,0 "></path></svg>